# xmcd
#
# Track frame offsets: 
#        150
#        11318
#        29372
#        41085
#        60659
#        77708
#        90999
#        108525
#
# Disc length: 1656 seconds
#
# Revision: 0
# Processed by: cddbd v1.5.1PL2 Copyright (c) Steve Scherf et al.
# Submitted via: ExactAudioCopy v0.95a5
#
DISCID=56067608
DTITLE=Lori Long - Lori Long
DYEAR=1900
DGENRE=Country
TTITLE0=The Long Haul
TTITLE1=The Nights In Between
TTITLE2=I Won't Be Your Trophy
TTITLE3=I Feel The Pain
TTITLE4=It Reminds Me of You
TTITLE5=You've Got It Made
TTITLE6=Blue Fool
TTITLE7=Babe in Bethlehem - Duet with David Frizzell
EXTD=
EXTT0=
EXTT1=
EXTT2=
EXTT3=
EXTT4=
EXTT5=
EXTT6=
EXTT7=
PLAYORDER=
